<svg xmlns="http://www.w3.org/2000/svg" fill="none" viewBox="0 0 348 348"><path stroke="#000" stroke-width="2" d="M5.0789997 5.7760001H341.992V343.446H5.0799995Z"/><path stroke="#000" stroke-width="2" d="M282.734 40.554c0-8.376 6.966-15.165 15.55999-15.165 4.12601 0 8.08401 1.597 11.00101 4.441001C312.213 32.674 313.85299 36.532 313.85299 40.554c0 8.376-6.966 15.165001-15.55999 15.165001-8.593 0-15.559-6.79-15.559-15.165001z"/><g stroke-width="1.27745"><path fill="#ffbf80" stroke="#000" stroke-width="2.5541" d="m276.24651 334.36379 4.60985-4.60984m38.78131 0 4.60984 4.60984m0-48.001-4.60984 4.60984m-43.39116-4.60984 4.60985 4.60984m0 0h38.78131v38.78132h-38.78131zm-4.60985-4.60984h48.001v48.001h-48.001z" style="font-variation-settings:normal" transform="matrix(.78268 0 0 .78294 -8.7531668 23.61114)"/><g fill="#000" stroke-width="6.38723" aria-label="W" font-family="Epilogue" font-size="31.9793" letter-spacing="0" style="line-height:normal;-inkscape-font-specification:Epilogue;text-align:center;text-decoration-line:none;text-decoration-color:#000" text-anchor="middle"><path d="m290.94902 322.15564-3.64564-23.58473h3.58169l2.95808 22.44946-.52766-.016 4.70096-22.43347h4.46111l4.68497 22.43347-.52766.016 2.95809-22.44946h3.59767l-3.67762 23.58473h-5.34054l-4.10934-20.89847h.38375l-4.14132 20.89847z" style="text-align:center" transform="matrix(.78268 0 0 .78294 -8.7531668 23.61114)"/></g></g><g stroke-width="1.27745"><path fill="#ffbf80" stroke="#000" stroke-width="2.5541" d="m166.24651 389.36379 4.60985-4.60984m38.78131 0 4.60984 4.60984m0-48.001-4.60984 4.60984m-43.39116-4.60984 4.60985 4.60984m0 0h38.78131v38.78132h-38.78131zm-4.60985-4.60984h48.001v48.001h-48.001z" style="font-variation-settings:normal" transform="matrix(.78268 0 0 .78294 -17.716825 28.093668)"/><g fill="#000" stroke-width="6.38723" aria-label="G" font-family="Epilogue" font-size="31.9793" letter-spacing="0" style="line-height:normal;-inkscape-font-specification:Epilogue;text-align:center;text-decoration-line:none;text-decoration-color:#000" text-anchor="middle"><path d="M190.3407 377.49142q-2.70226 0-4.90883-1.42308-2.19058-1.42308-3.50173-4.12533-1.29516-2.70225-1.29516-6.53976 0-3.85351 1.32714-6.55576 1.34313-2.70225 3.61366-4.14132 2.28652-1.43907 5.11669-1.43907 2.3185 0 3.91746.7835 1.61496.78349 2.6223 2.01469 1.02334 1.2312 1.48704 2.60631.4637 1.35912.4637 2.55835v.1918h-3.37381v-.1918q0-.89542-.3198-1.77485-.3038-.89542-.94339-1.61496-.62359-.71953-1.59896-1.15125-.95938-.43172-2.25454-.43172-1.75886 0-3.2459.97537-1.48704.95938-2.39845 2.99006-.91141 2.0147-.91141 5.18065 0 2.41443.49568 4.15731.51167 1.72688 1.3911 2.83016.87943 1.0873 2.03069 1.61496 1.15125.52766 2.4624.52766 1.75886 0 2.89413-.59162 1.15125-.60761 1.77485-1.50303.63959-.89542.81547-1.77485v-2.1586h-5.4045V365.787h8.52248v11.36864h-2.22256l-.25583-2.6223q-.12792.27182-.52766.75151t-1.15126.99136q-.73552.51167-1.88677.86344-1.13527.35177-2.73423.35177z" style="text-align:center" transform="matrix(.78268 0 0 .78294 -17.716825 28.093668)"/></g></g><g stroke-width="1.27745"><path fill="#ff80ff" stroke="#000" stroke-width="2.5541" d="m56.246513 114.36379 4.609843-4.60984m38.781316 0 4.609838 4.60984m0-48.000997-4.609838 4.609842m-43.391159-4.609842 4.609843 4.609842m0 0h38.781316v38.781315H60.856356Zm-4.609843-4.609842h48.000997v48.000997H56.246513Z" style="font-variation-settings:normal" transform="matrix(.78268 0 0 .78294 -26.680484 5.681024)"/><g fill="#000" stroke-width="6.38723" aria-label="J" font-family="Epilogue" font-size="31.9793" letter-spacing="0" style="line-height:normal;-inkscape-font-specification:Epilogue;text-align:center;text-decoration-line:none;text-decoration-color:#000" text-anchor="middle"><path d="M79.75908 102.49143q-2.574334 0-4.173299-.97537-1.582975-.99136-2.318499-2.750218-.719534-1.758862-.719534-4.10934V93.681133h3.421785V94.336709q0 1.471047.351772 2.654281.367762 1.167245 1.199224 1.8548.831461.687555 2.238551.687555 1.407089 0 2.222561-.687555.815472-.687555 1.167244-1.918758.351773-1.247193.351773-2.878137V78.570914h3.469754v15.941681q0 1.694903-.367762 3.149961-.367762 1.455058-1.215214 2.542354-.831462 1.07131-2.206571 1.67891-1.37511.60761-3.421785.60761z" style="text-align:center" transform="matrix(.78268 0 0 .78294 -26.680484 5.681024)"/></g></g><g stroke-width="1.27745"><path fill="#80ff80" stroke="#000" stroke-width="2.5541" d="m111.24651 114.36379 4.60985-4.60984m38.78131 0 4.60984 4.60984m0-48.000997-4.60984 4.609842m-43.39116-4.609842 4.60985 4.609842m0 0h38.78131v38.781315h-38.78131zm-4.60985-4.609842h48.001v48.000997h-48.001z" style="font-variation-settings:normal" transform="matrix(.78268 0 0 .78294 -22.198654 5.681024)"/><g fill="#000" stroke-width="6.38723" aria-label="X" font-family="Epilogue" font-size="31.9793" letter-spacing="0" style="line-height:normal;-inkscape-font-specification:Epilogue;text-align:center;text-decoration-line:none;text-decoration-color:#000" text-anchor="middle"><path d="m133.98357 89.076114-.032 2.830168-7.54711-13.335368h3.88548l5.86821 10.984889h-1.87079l5.82023-10.984889h3.88548l-7.48315 13.335368-.016-2.830168 7.73899 13.079536h-3.90148l-6.10804-10.729058h1.9987l-6.12403 10.729058h-3.88549z" style="text-align:center" transform="matrix(.78268 0 0 .78294 -22.198654 5.681024)"/></g></g><g stroke-width="1.27745"><path fill="#80ffff" stroke="#000" stroke-width="2.5541" d="m166.24651 114.36379 4.60985-4.60984m38.78131 0 4.60984 4.60984m0-48.000997-4.60984 4.609842m-43.39116-4.609842 4.60985 4.609842m0 0h38.78131v38.781315h-38.78131zm-4.60985-4.609842h48.001v48.000997h-48.001z" style="font-variation-settings:normal" transform="matrix(.78268 0 0 .78294 -17.716825 5.681024)"/><g fill="#000" stroke-width="6.38723" aria-label="T" font-family="Epilogue" font-size="31.9793" letter-spacing="0" style="line-height:normal;-inkscape-font-specification:Epilogue;text-align:center;text-decoration-line:none;text-decoration-color:#000" text-anchor="middle"><path d="M198.02797 81.449051h-7.14737l1.08729-1.82282v22.529419h-3.46975V79.626231l1.19922 1.82282h-7.24331v-2.878137h15.57392z" style="text-align:center" transform="matrix(.78268 0 0 .78294 -17.716825 5.681024)"/></g></g><g stroke-width="1.27745"><path fill="#80ffff" stroke="#000" stroke-width="2.5541" d="m221.24651 114.36379 4.60985-4.60984m38.78131 0 4.60984 4.60984m0-48.000997-4.60984 4.609842m-43.39116-4.609842 4.60985 4.609842m0 0h38.78131v38.781315h-38.78131zm-4.60985-4.609842h48.001v48.000997h-48.001z" style="font-variation-settings:normal" transform="matrix(.78268 0 0 .78294 -13.234996 5.681024)"/><g fill="#000" stroke-width="6.38723" aria-label="V" font-family="Epilogue" font-size="31.9793" letter-spacing="0" style="line-height:normal;-inkscape-font-specification:Epilogue;text-align:center;text-decoration-line:none;text-decoration-color:#000" text-anchor="middle"><path d="m242.7044 102.25159-6.21997-23.680676h3.82152l5.05273 21.234255h-.19187l4.98877-21.234255h3.83751l-6.15601 23.680676z" style="text-align:center" transform="matrix(.78268 0 0 .78294 -13.234996 5.681024)"/></g></g><g stroke-width="1.27745"><path fill="#8080ff" stroke="#000" stroke-width="2.5541" d="m276.24651 114.36379 4.60985-4.60984m38.78131 0 4.60984 4.60984m0-48.000997-4.60984 4.609842m-43.39116-4.609842 4.60985 4.609842m0 0h38.78131v38.781315h-38.78131zm-4.60985-4.609842h48.001v48.000997h-48.001z" style="font-variation-settings:normal" transform="matrix(.78268 0 0 .78294 -8.7531668 5.681024)"/><g fill="#000" stroke-width="6.38723" aria-label="E" font-family="Epilogue" font-size="31.9793" letter-spacing="0" style="line-height:normal;-inkscape-font-specification:Epilogue;text-align:center;text-decoration-line:none;text-decoration-color:#000" text-anchor="middle"><path d="m295.4731 81.449051 1.56698-1.82282v10.361293l-.83146-1.103286h8.93821v2.878137h-8.93821l.83146-1.103286v10.441241l-1.56698-1.82282h11.44859v2.87814h-13.36735V78.570914h13.36735v2.878137z" style="text-align:center" transform="matrix(.78268 0 0 .78294 -8.7531668 5.681024)"/></g></g><g stroke-width="1.27745"><path fill="#ff80ff" stroke="#000" stroke-width="2.5541" d="m56.246513 169.36379 4.609843-4.60984m38.781316 0 4.609838 4.60984m0-48.001-4.609838 4.60984m-43.391159-4.60984 4.609843 4.60984m0 0h38.781316v38.78132H60.856356Zm-4.609843-4.60984h48.000997v48.001H56.246513Z" style="font-variation-settings:normal" transform="matrix(.78268 0 0 .78294 -26.680484 10.163553)"/><g fill="#000" stroke-width="6.38723" aria-label="K" font-family="Epilogue" font-size="31.9793" letter-spacing="0" style="line-height:normal;-inkscape-font-specification:Epilogue;text-align:center;text-decoration-line:none;text-decoration-color:#000" text-anchor="middle"><path d="m79.477012 145.37127.07995-2.67027 9.433894 14.45464h-3.869495l-7.627063-11.76838 1.678913.22385-3.421785 4.52507.335782-2.22256v9.24202h-3.469754v-23.58473h3.469754v12.72776l-.671565-.55964 9.289987-12.16812h3.741578z" style="text-align:center" transform="matrix(.78268 0 0 .78294 -26.680484 10.163553)"/></g></g><g stroke-width="1.27745"><path fill="#80ffff" stroke="#000" stroke-width="2.5541" d="m111.24651 169.36379 4.60985-4.60984m38.78131 0 4.60984 4.60984m0-48.001-4.60984 4.60984m-43.39116-4.60984 4.60985 4.60984m0 0h38.78131v38.78132h-38.78131zm-4.60985-4.60984h48.001v48.001h-48.001z" style="font-variation-settings:normal" transform="matrix(.78268 0 0 .78294 -22.198654 10.163553)"/><g fill="#000" stroke-width="6.38723" aria-label="L" font-family="Epilogue" font-size="31.9793" letter-spacing="0" style="line-height:normal;-inkscape-font-specification:Epilogue;text-align:center;text-decoration-line:none;text-decoration-color:#000" text-anchor="middle"><path d="M129.33508 157.15564v-23.58473h3.46976v22.52941l-1.56699-1.88678h10.69708v2.9421z" style="text-align:center" transform="matrix(.78268 0 0 .78294 -22.198654 10.163553)"/></g></g><g stroke-width="1.27745"><path fill="#ffff80" stroke="#000" stroke-width="2.5541" d="m166.24651 169.36379 4.60985-4.60984m38.78131 0 4.60984 4.60984m0-48.001-4.60984 4.60984m-43.39116-4.60984 4.60985 4.60984m0 0h38.78131v38.78132h-38.78131zm-4.60985-4.60984h48.001v48.001h-48.001z" style="font-variation-settings:normal" transform="matrix(.78268 0 0 .78294 -17.716825 10.163553)"/><g fill="#000" stroke-width="6.38723" aria-label="F" font-family="Epilogue" font-size="31.9793" letter-spacing="0" style="line-height:normal;-inkscape-font-specification:Epilogue;text-align:center;text-decoration-line:none;text-decoration-color:#000" text-anchor="middle"><path d="m185.75341 136.44904 1.56699-1.82282v10.48921l-1.0873-.99135h9.5778v2.87813h-9.5778l1.0873-1.05531v11.20874h-3.45376v-23.58473h13.36734v2.87813z" style="text-align:center" transform="matrix(.78268 0 0 .78294 -17.716825 10.163553)"/></g></g><g stroke-width="1.27745"><path fill="#ffbf80" stroke="#000" stroke-width="2.5541" d="m221.24651 169.36379 4.60985-4.60984m38.78131 0 4.60984 4.60984m0-48.001-4.60984 4.60984m-43.39116-4.60984 4.60985 4.60984m0 0h38.78131v38.78132h-38.78131zm-4.60985-4.60984h48.001v48.001h-48.001z" style="font-variation-settings:normal" transform="matrix(.78268 0 0 .78294 -13.234996 10.163553)"/><g fill="#000" stroke-width="6.38723" aria-label="O" font-family="Epilogue" font-size="31.9793" letter-spacing="0" style="line-height:normal;-inkscape-font-specification:Epilogue;text-align:center;text-decoration-line:none;text-decoration-color:#000" text-anchor="middle"><path d="M245.23401 157.49142q-2.11063 0-3.90147-.79948-1.77485-.81547-3.11798-2.36647-1.32714-1.56698-2.06267-3.82152-.73552-2.27053-.73552-5.16466 0-2.91012.73552-5.14867.73553-2.25454 2.06267-3.78955 1.34313-1.55099 3.13397-2.33448 1.79084-.79949 3.88548-.79949 2.11064 0 3.90148.79949 1.80683.78349 3.13397 2.33448 1.32714 1.53501 2.06267 3.78955.73552 2.23855.73552 5.14867 0 2.89413-.73552 5.16466-.73553 2.25454-2.07866 3.82152-1.32714 1.551-3.11798 2.36647-1.79084.79948-3.90148.79948zm0-2.95808q1.80683 0 3.22991-.99136 1.43907-.99136 2.25454-3.02205.81548-2.04667.81548-5.18064 0-3.14996-.83147-5.16466-.81547-2.01469-2.23855-2.97407-1.42308-.95938-3.22991-.95938-1.77485 0-3.21392.95938-1.42307.95938-2.25454 2.97407-.83146 2.0147-.83146 5.16466 0 3.14996.83146 5.19663.83147 2.03069 2.25454 3.02205 1.43907.97537 3.21392.97537z" style="text-align:center" transform="matrix(.78268 0 0 .78294 -13.234996 10.163553)"/></g></g><g stroke-width="1.27745"><path fill="#ff80ff" stroke="#000" stroke-width="2.5541" d="m276.24651 169.36379 4.60985-4.60984m38.78131 0 4.60984 4.60984m0-48.001-4.60984 4.60984m-43.39116-4.60984 4.60985 4.60984m0 0h38.78131v38.78132h-38.78131zm-4.60985-4.60984h48.001v48.001h-48.001z" style="font-variation-settings:normal" transform="matrix(.78268 0 0 .78294 -8.7531668 10.163553)"/><g fill="#000" stroke-width="6.38723" aria-label="U" font-family="Epilogue" font-size="31.9793" letter-spacing="0" style="line-height:normal;-inkscape-font-specification:Epilogue;text-align:center;text-decoration-line:none;text-decoration-color:#000" text-anchor="middle"><path d="M308.59235 148.52123q0 4.54106-2.22256 6.76362-2.22256 2.20657-6.14002 2.20657-3.90148 0-6.12404-2.20657-2.20657-2.22256-2.20657-6.76362v-14.95032h3.46975V148.50524q0 3.19793 1.21522 4.62101 1.21521 1.40709 3.64564 1.40709 2.44641 0 3.66163-1.40709 1.2312-1.42308 1.2312-4.62101v-14.93433h3.46975z" style="text-align:center" transform="matrix(.78268 0 0 .78294 -8.7531668 10.163553)"/></g></g><g stroke-width="1.27745"><path fill="#ff80ff" stroke="#000" stroke-width="2.5541" d="m56.246513 224.36379 4.609843-4.60984m38.781316 0 4.609838 4.60984m0-48.001-4.609838 4.60984m-43.391159-4.60984 4.609843 4.60984m0 0h38.781316v38.78132H60.856356Zm-4.609843-4.60984h48.000997v48.001H56.246513Z" style="font-variation-settings:normal" transform="matrix(.78268 0 0 .78294 -26.680484 14.646082)"/><g fill="#000" stroke-width="6.38723" aria-label="Z" font-family="Epilogue" font-size="31.9793" letter-spacing="0" style="line-height:normal;-inkscape-font-specification:Epilogue;text-align:center;text-decoration-line:none;text-decoration-color:#000" text-anchor="middle"><path d="M76.708055 209.2775h10.777023v2.87814H72.82257v-2.54235l10.95291-18.18024.03198.016H73.542104v-2.87813h14.102871v2.49438l-10.93692 18.16424z" style="text-align:center" transform="matrix(.78268 0 0 .78294 -26.680484 14.646082)"/></g></g><g stroke-width="1.27745"><path fill="#80ff80" stroke="#000" stroke-width="2.5541" d="m111.24651 224.36379 4.60985-4.60984m38.78131 0 4.60984 4.60984m0-48.001-4.60984 4.60984m-43.39116-4.60984 4.60985 4.60984m0 0h38.78131v38.78132h-38.78131zm-4.60985-4.60984h48.001v48.001h-48.001z" style="font-variation-settings:normal" transform="matrix(.78268 0 0 .78294 -22.198654 14.646082)"/><g fill="#000" stroke-width="6.38723" aria-label="P" font-family="Epilogue" font-size="31.9793" letter-spacing="0" style="line-height:normal;-inkscape-font-specification:Epilogue;text-align:center;text-decoration-line:none;text-decoration-color:#000" text-anchor="middle"><path d="M131.43073 212.15564h-3.46976v-23.58473h7.09941q2.71824 0 4.55705 1.02333 1.8548 1.02334 2.7822 2.76621.94339 1.72689.94339 3.8695t-.95938 3.94944q-.94339 1.79084-2.79819 2.87814-1.8548 1.0873-4.52507 1.0873h-3.62965zm0-9.19405-1.56699-1.6949h4.7969q1.6949 0 2.84615-.60761 1.16725-.62359 1.75886-1.75886.59162-1.13527.59162-2.67027 0-1.53501-.57563-2.60631-.57562-1.07131-1.72688-1.61496-1.15125-.55964-2.89412-.55964h-4.7969l1.56699-1.82282z" style="text-align:center" transform="matrix(.78268 0 0 .78294 -22.198654 14.646082)"/></g></g><g stroke-width="1.27745"><path fill="#80ff80" stroke="#000" stroke-width="2.5541" d="m166.24651 224.36379 4.60985-4.60984m38.78131 0 4.60984 4.60984m0-48.001-4.60984 4.60984m-43.39116-4.60984 4.60985 4.60984m0 0h38.78131v38.78132h-38.78131zm-4.60985-4.60984h48.001v48.001h-48.001z" style="font-variation-settings:normal" transform="matrix(.78268 0 0 .78294 -17.716825 14.646082)"/><g fill="#000" stroke-width="6.38723" aria-label="I" font-family="Epilogue" font-size="31.9793" letter-spacing="0" style="line-height:normal;-inkscape-font-specification:Epilogue;text-align:center;text-decoration-line:none;text-decoration-color:#000" text-anchor="middle"><path d="M188.52137 212.15564v-23.58473h3.42179v23.58473z" style="text-align:center" transform="matrix(.78268 0 0 .78294 -17.716825 14.646082)"/></g></g><g stroke-width="1.27745"><path fill="#ff8080" stroke="#000" stroke-width="2.5541" d="m221.24651 224.36379 4.60985-4.60984m38.78131 0 4.60984 4.60984m0-48.001-4.60984 4.60984m-43.39116-4.60984 4.60985 4.60984m0 0h38.78131v38.78132h-38.78131zm-4.60985-4.60984h48.001v48.001h-48.001z" style="font-variation-settings:normal" transform="matrix(.78268 0 0 .78294 -13.234996 14.646082)"/><g fill="#000" stroke-width="6.38723" aria-label="C" font-family="Epilogue" font-size="31.9793" letter-spacing="0" style="line-height:normal;-inkscape-font-specification:Epilogue;text-align:center;text-decoration-line:none;text-decoration-color:#000" text-anchor="middle"><path d="M254.528 203.80904q0 1.47105-.54365 2.99007-.54365 1.51901-1.64693 2.81418-1.10329 1.29516-2.7822 2.09464-1.67892.78349-3.94945.78349-3.086 0-5.26059-1.55099-2.1586-1.56699-3.29387-4.30122-1.13526-2.73423-1.13526-6.26794 0-3.5497 1.13526-6.26794 1.13527-2.73424 3.29387-4.28523 2.17459-1.551 5.26059-1.551 2.57434 0 4.38117 1.00735 1.82282 1.00735 2.89412 2.59032 1.0873 1.58298 1.43907 3.29387.20787.9274.20787 1.75886h-3.48575q0-.44771-.0799-.97537-.17589-1.27917-.86344-2.35047-.67157-1.07131-1.80683-1.7109-1.11928-.63958-2.68627-.63958-1.82282 0-3.21392 1.02334-1.3911 1.00734-2.17459 3.03803-.7675 2.03068-.7675 5.06872 0 3.02204.7675 5.06872.78349 2.03068 2.17459 3.07001 1.3911 1.02334 3.21392 1.02334 1.32714 0 2.33449-.47969 1.00735-.47969 1.69491-1.29516.68755-.81548 1.03932-1.83881.36776-1.02334.36776-2.11064z" style="text-align:center" transform="matrix(.78268 0 0 .78294 -13.234996 14.646082)"/></g></g><g stroke-width="1.27745"><path fill="#ffbf80" stroke="#000" stroke-width="2.5541" d="m276.24651 224.36379 4.60985-4.60984m38.78131 0 4.60984 4.60984m0-48.001-4.60984 4.60984m-43.39116-4.60984 4.60985 4.60984m0 0h38.78131v38.78132h-38.78131zm-4.60985-4.60984h48.001v48.001h-48.001z" style="font-variation-settings:normal" transform="matrix(.78268 0 0 .78294 -8.7531668 14.646082)"/><g fill="#000" stroke-width="6.38723" aria-label="Q" font-family="Epilogue" font-size="31.9793" letter-spacing="0" style="line-height:normal;-inkscape-font-specification:Epilogue;text-align:center;text-decoration-line:none;text-decoration-color:#000" text-anchor="middle"><path d="M298.715 212.0597h2.99006q0 .91141.55964 1.51902.55964.62359 1.34313 1.00735.79948.38375 1.50303.57562.71953.19188 1.00735.25584l-1.02334 2.35048q-.27183-.048-1.00735-.20787-.71953-.14391-1.63094-.51167-.91141-.35177-1.77486-.99136-.84745-.62359-1.40708-1.61495-.55964-.97537-.55964-2.38246zm1.51901.43172q-2.11063 0-3.90147-.79948-1.77485-.81547-3.11798-2.36647-1.32714-1.56698-2.06267-3.82152-.73552-2.27053-.73552-5.16466 0-2.91012.73552-5.14867.73553-2.25454 2.06267-3.78955 1.34313-1.55099 3.13397-2.33448 1.79084-.79949 3.88548-.79949 2.11064 0 3.90148.79949 1.80683.78349 3.13397 2.33448 1.32714 1.53501 2.06267 3.78955.73552 2.23855.73552 5.14867 0 2.89413-.73552 5.16466-.73553 2.25454-2.07866 3.82152-1.32714 1.551-3.11798 2.36647-1.79084.79948-3.90148.79948zm0-2.95808q1.80683 0 3.22991-.99136 1.43907-.99136 2.25454-3.02205.81548-2.04667.81548-5.18064 0-3.14996-.83147-5.16466-.81547-2.01469-2.23855-2.97407-1.42308-.95938-3.22991-.95938-1.77485 0-3.21392.95938-1.42307.95938-2.25454 2.97407-.83146 2.0147-.83146 5.16466 0 3.14996.83146 5.19663.83147 2.03069 2.25454 3.02205 1.43907.97537 3.21392.97537z" style="text-align:center" transform="matrix(.78268 0 0 .78294 -8.7531668 14.646082)"/></g></g><g stroke-width="1.27745"><path fill="#ffbf80" stroke="#000" stroke-width="2.5541" d="m56.246513 279.36379 4.609843-4.60984m38.781316 0 4.609838 4.60984m0-48.001-4.609838 4.60984m-43.391159-4.60984 4.609843 4.60984m0 0h38.781316v38.78132H60.856356Zm-4.609843-4.60984h48.000997v48.001H56.246513Z" style="font-variation-settings:normal" transform="matrix(.78268 0 0 .78294 -26.680484 19.128611)"/><g fill="#000" stroke-width="6.38723" aria-label="M" font-family="Epilogue" font-size="31.9793" letter-spacing="0" style="line-height:normal;-inkscape-font-specification:Epilogue;text-align:center;text-decoration-line:none;text-decoration-color:#000" text-anchor="middle"><path d="M85.467884 243.57091h5.93216v23.58473h-3.293868v-21.15431l.09594.032-5.548408 21.12233H77.88879l-5.596377-21.13832.09594-.048v21.18629h-3.309858V243.5709h5.93216l5.292574 21.34618h-.159896z" style="text-align:center" transform="matrix(.78268 0 0 .78294 -26.680484 19.128611)"/></g></g><g stroke-width="1.27745"><path fill="#ffff80" stroke="#000" stroke-width="2.5541" d="m111.24651 279.36379 4.60985-4.60984m38.78131 0 4.60984 4.60984m0-48.001-4.60984 4.60984m-43.39116-4.60984 4.60985 4.60984m0 0h38.78131v38.78132h-38.78131zm-4.60985-4.60984h48.001v48.001h-48.001z" style="font-variation-settings:normal" transform="matrix(.78268 0 0 .78294 -22.198654 19.128611)"/><g fill="#000" stroke-width="6.38723" aria-label="H" font-family="Epilogue" font-size="31.9793" letter-spacing="0" style="line-height:normal;-inkscape-font-specification:Epilogue;text-align:center;text-decoration-line:none;text-decoration-color:#000" text-anchor="middle"><path d="M143.65781 243.57091v23.58473h-3.46975v-11.72041l1.56698 1.40709h-13.01557l1.56698-1.3911v11.70442h-3.46975v-23.58473h3.46975v11.83234l-1.56698-1.45506h13.01557l-1.56698 1.45506v-11.83234z" style="text-align:center" transform="matrix(.78268 0 0 .78294 -22.198654 19.128611)"/></g></g><g stroke-width="1.27745"><path fill="#ffff80" stroke="#000" stroke-width="2.5541" d="m166.24651 279.36379 4.60985-4.60984m38.78131 0 4.60984 4.60984m0-48.001-4.60984 4.60984m-43.39116-4.60984 4.60985 4.60984m0 0h38.78131v38.78132h-38.78131zm-4.60985-4.60984h48.001v48.001h-48.001z" style="font-variation-settings:normal" transform="matrix(.78268 0 0 .78294 -17.716825 19.128611)"/><g fill="#000" stroke-width="6.38723" aria-label="Y" font-family="Epilogue" font-size="31.9793" letter-spacing="0" style="line-height:normal;-inkscape-font-specification:Epilogue;text-align:center;text-decoration-line:none;text-decoration-color:#000" text-anchor="middle"><path d="m198.63308 243.57091-6.68368 15.41402v8.17071h-3.46975v-8.17071l-6.65169-15.41402h3.67762l5.43648 13.44729h-1.42308l5.42049-13.44729z" style="text-align:center" transform="matrix(.78268 0 0 .78294 -17.716825 19.128611)"/></g></g><g stroke-width="1.27745"><path fill="#ff80ff" stroke="#000" stroke-width="2.5541" d="m221.24651 279.36379 4.60985-4.60984m38.78131 0 4.60984 4.60984m0-48.001-4.60984 4.60984m-43.39116-4.60984 4.60985 4.60984m0 0h38.78131v38.78132h-38.78131zm-4.60985-4.60984h48.001v48.001h-48.001z" style="font-variation-settings:normal" transform="matrix(.78268 0 0 .78294 -13.234996 19.128611)"/><g fill="#000" stroke-width="6.38723" aria-label="D" font-family="Epilogue" font-size="31.9793" letter-spacing="0" style="line-height:normal;-inkscape-font-specification:Epilogue;text-align:center;text-decoration-line:none;text-decoration-color:#000" text-anchor="middle"><path d="M237.149 267.15564v-23.58473h6.47581q2.35047 0 4.25324.83146 1.90277.83146 3.2459 2.36647 1.35912 1.535 2.09465 3.70959.73552 2.1746.73552 4.86086 0 2.70225-.73552 4.87684-.73553 2.17459-2.09465 3.72559-1.34313 1.551-3.2459 2.38246-1.90277.83146-4.25324.83146zm3.48574-1.05532-1.56698-1.82282h4.14132q2.07865 0 3.70959-1.08729 1.64694-1.0873 2.57434-3.08601.9274-2.01469.9274-4.76491 0-2.76621-.9274-4.74893-.9274-1.9987-2.57434-3.07001-1.63094-1.07131-3.70959-1.07131h-4.14132l1.56698-1.82282z" style="text-align:center" transform="matrix(.78268 0 0 .78294 -13.234996 19.128611)"/></g></g><g stroke-width="1.27745"><path fill="#ffbf80" stroke="#000" stroke-width="2.5541" d="m276.24651 279.36379 4.60985-4.60984m38.78131 0 4.60984 4.60984m0-48.001-4.60984 4.60984m-43.39116-4.60984 4.60985 4.60984m0 0h38.78131v38.78132h-38.78131zm-4.60985-4.60984h48.001v48.001h-48.001z" style="font-variation-settings:normal" transform="matrix(.78268 0 0 .78294 -8.7531668 19.128611)"/><g fill="#000" stroke-width="6.38723" aria-label="B" font-family="Epilogue" font-size="31.9793" letter-spacing="0" style="line-height:normal;-inkscape-font-specification:Epilogue;text-align:center;text-decoration-line:none;text-decoration-color:#000" text-anchor="middle"><path d="M300.82313 243.57091q2.28652 0 3.82153.63958 1.551.6236 2.35048 1.88678.79948 1.24719.79948 3.11798 0 1.79084-.73552 3.02205-.71954 1.21521-1.8548 1.8548-1.11928.63958-2.30251.71953 1.27917.032 2.52636.60761 1.26318.55963 2.07866 1.82282.81547 1.24719.81547 3.34183 0 2.0147-.81547 3.50174-.79949 1.47104-2.4784 2.27053-1.67891.79948-4.3172.79948h-8.21868v-23.58473zm-4.98877 11.00088-1.16724-1.0873h4.79689q2.33449 0 3.59767-.95938 1.26319-.95938 1.26319-2.75022 0-1.21521-.52766-1.93475-.52766-.73552-1.51902-1.05531-.97537-.33579-2.3185-.33579h-5.69231l1.56698-1.82282zm4.20528 9.70571q2.23855 0 3.48574-.99136 1.26319-1.00734 1.26319-2.89412 0-1.13527-.41573-1.90277-.39975-.78349-1.10329-1.24719-.70355-.4637-1.63094-.67157-.9274-.22385-1.98272-.22385h-4.98877l1.16724-1.0873v10.84098l-1.56698-1.82282z" style="text-align:center" transform="matrix(.78268 0 0 .78294 -8.7531668 19.128611)"/></g></g><g stroke-width="1.27745"><path fill="#8080ff" stroke="#000" stroke-width="2.5541" d="m56.246513 334.36379 4.609843-4.60984m38.781316 0 4.609838 4.60984m0-48.001-4.609838 4.60984m-43.391159-4.60984 4.609843 4.60984m0 0h38.781316v38.78132H60.856356Zm-4.609843-4.60984h48.000997v48.001H56.246513Z" style="font-variation-settings:normal" transform="matrix(.78268 0 0 .78294 -26.680484 23.61114)"/><g fill="#000" stroke-width="6.38723" aria-label="A" font-family="Epilogue" font-size="31.9793" letter-spacing="0" style="line-height:normal;-inkscape-font-specification:Epilogue;text-align:center;text-decoration-line:none;text-decoration-color:#000" text-anchor="middle"><path d="m71.234598 322.15564 6.299922-23.6327h5.45247l6.235964 23.6327h-3.565692l-5.420492-21.44212h.03198l-5.452471 21.44212zm3.64564-5.99612v-2.87814h10.745044v2.87814z" style="text-align:center" transform="matrix(.78268 0 0 .78294 -26.680484 23.61114)"/></g></g><g stroke-width="1.27745"><path fill="#80ffff" stroke="#000" stroke-width="2.5541" d="m111.24651 334.36379 4.60985-4.60984m38.78131 0 4.60984 4.60984m0-48.001-4.60984 4.60984m-43.39116-4.60984 4.60985 4.60984m0 0h38.78131v38.78132h-38.78131zm-4.60985-4.60984h48.001v48.001h-48.001z" style="font-variation-settings:normal" transform="matrix(.78268 0 0 .78294 -22.198654 23.61114)"/><g fill="#000" stroke-width="6.38723" aria-label="N" font-family="Epilogue" font-size="31.9793" letter-spacing="0" style="line-height:normal;-inkscape-font-specification:Epilogue;text-align:center;text-decoration-line:none;text-decoration-color:#000" text-anchor="middle"><path d="M129.71084 322.15564h-3.37382v-23.58473h5.53242l9.30598 21.9378-.41573.15989v-22.09769h3.3898v23.58473h-5.61236l-9.274-21.90582.44771-.14391z" style="text-align:center" transform="matrix(.78268 0 0 .78294 -22.198654 23.61114)"/></g></g><g stroke-width="1.27745"><path fill="#ff8080" stroke="#000" stroke-width="2.5541" d="m166.24651 334.36379 4.60985-4.60984m38.78131 0 4.60984 4.60984m0-48.001-4.60984 4.60984m-43.39116-4.60984 4.60985 4.60984m0 0h38.78131v38.78132h-38.78131zm-4.60985-4.60984h48.001v48.001h-48.001z" style="font-variation-settings:normal" transform="matrix(.78268 0 0 .78294 -17.716825 23.61114)"/><g fill="#000" stroke-width="6.38723" aria-label="S" font-family="Epilogue" font-size="31.9793" letter-spacing="0" style="line-height:normal;-inkscape-font-specification:Epilogue;text-align:center;text-decoration-line:none;text-decoration-color:#000" text-anchor="middle"><path d="M190.22402 322.49142q-2.49438 0-4.30121-.78349-1.79085-.78349-2.7822-2.36647-.97537-1.59896-.97537-3.94944v-1.03933h3.46975V315.32806q0 2.17459 1.16725 3.19793 1.16724 1.00735 3.40579 1.00735 2.28652 0 3.48574-.76751 1.19923-.78349 1.19923-2.51037 0-1.2312-.75151-2.06267-.73553-.84745-2.04668-1.45505-1.29516-.60761-2.99006-1.13527-1.90277-.59162-3.43778-1.50303-1.53501-.9274-2.44642-2.30251-.89542-1.3911-.89542-3.3898 0-1.96673.99136-3.34184.99136-1.37511 2.75022-2.07865 1.75886-.71954 4.02939-.71954 2.41444 0 4.20528.75152 1.80683.73552 2.79819 2.23855 1.00735 1.48703 1.00735 3.75757v1.11927h-3.48575V305.15864q0-2.07865-1.13526-3.00605-1.11928-.9274-3.32585-.9274-2.14261 0-3.30986.75151-1.15125.75152-1.15125 2.43043 0 1.24719.73552 2.07865.75152.83146 2.04668 1.42308 1.31115.59162 2.97407 1.15126 2.11064.70354 3.62965 1.58297 1.53501.87943 2.36647 2.19058.83146 1.31116.83146 3.30986 0 2.0147-.99135 3.43778-.99136 1.42307-2.79819 2.17459-1.80683.73552-4.26924.73552z" style="text-align:center" transform="matrix(.78268 0 0 .78294 -17.716825 23.61114)"/></g></g><g stroke-width="1.27745"><path fill="#ffff80" stroke="#000" stroke-width="2.5541" d="m221.24651 334.36379 4.60985-4.60984m38.78131 0 4.60984 4.60984m0-48.001-4.60984 4.60984m-43.39116-4.60984 4.60985 4.60984m0 0h38.78131v38.78132h-38.78131zm-4.60985-4.60984h48.001v48.001h-48.001z" style="font-variation-settings:normal" transform="matrix(.78268 0 0 .78294 -13.234996 23.61114)"/><g fill="#000" stroke-width="6.38723" aria-label="R" font-family="Epilogue" font-size="31.9793" letter-spacing="0" style="line-height:normal;-inkscape-font-specification:Epilogue;text-align:center;text-decoration-line:none;text-decoration-color:#000" text-anchor="middle"><path d="M237.64867 322.15564v-23.58473h8.63442q3.40579 0 5.14866 1.58297 1.74287 1.58298 1.74287 4.74893 0 1.8548-.71953 3.16595-.70354 1.31115-1.71089 2.03068-.99136.70355-1.87079.79949.89542.0639 1.74287.47969.84745.41573 1.40709 1.27917.55964.86344.55964 2.33449v5.06872q0 .71953.11192 1.31115.12792.57562.30381.78349h-3.50173q-.14391-.23985-.25584-.79948-.11193-.55964-.11193-1.29516v-4.65299q0-1.51902-.91141-2.27053-.89542-.76751-2.6223-.76751h-5.50044l.94339-1.2312v11.01687zm3.38981-11.30468-.94339-1.35912h5.53242q1.11928 0 2.0147-.52766.89542-.54365 1.42307-1.50303.54365-.97537.54365-2.27053 0-1.95074-1.0713-2.84616-1.07131-.89542-3.07002-.89542h-5.45247l1.02334-1.32714z" style="text-align:center" transform="matrix(.78268 0 0 .78294 -13.234996 23.61114)"/></g></g></svg>